<?xml version="1.0" encoding="UTF-8"?>
<svg id="Layer_1" xmlns="http://www.w3.org/2000/svg" version="1.1" viewBox="0 0 48 48">
  <!-- Generator: Adobe Illustrator 29.5.1, SVG Export Plug-In . SVG Version: 2.1.0 Build 141)  -->
  <defs>
    <style>
      .st0 {
        fill: #fff;
      }

      .st1 {
        fill: #0066b3;
      }
    </style>
  </defs>
  <circle class="st1" cx="24" cy="24" r="24"/>
  <g>
    <path class="st0" d="M36.1,20.2v13.3c0,.3-.3.6-.6.6s-.6-.3-.6-.6v-13.3h1.2Z"/>
    <path class="st0" d="M13.7,20.2v13.3c0,.3-.3.6-.6.6s-.6-.3-.6-.6v-13.3h1.2Z"/>
    <path class="st0" d="M38.2,16.5H9.8c-.2,0-.4-.1-.5-.3-.1-.2-.1-.4,0-.6.1-.2.3-.3.5-.3h28.4c.2,0,.4.1.5.3.1.2.1.4,0,.6-.1.2-.3.3-.5.3Z"/>
    <path class="st0" d="M11.9,17.6h24.3v1.4H11.9v-1.4Z"/>
  </g>
</svg>