<?xml version="1.0" encoding="UTF-8"?>
<svg id="Layer_1" xmlns="http://www.w3.org/2000/svg" version="1.1" viewBox="0 0 48 48">
  <!-- Generator: Adobe Illustrator 29.5.1, SVG Export Plug-In . SVG Version: 2.1.0 Build 141)  -->
  <defs>
    <style>
      .st0 {
        fill: #fff;
      }

      .st1 {
        fill: #0066b3;
      }
    </style>
  </defs>
  <circle class="st1" cx="24" cy="24" r="24"/>
  <g>
    <path class="st0" d="M38.8,20.1v16.3c0,.4-.3.7-.7.7s-.7-.3-.7-.7v-16.3h1.4Z"/>
    <path class="st0" d="M11.4,20.1v16.3c0,.4-.3.7-.7.7s-.7-.3-.7-.7v-16.3h1.4Z"/>
    <path class="st0" d="M41.3,15.6H6.7c-.2,0-.5-.1-.6-.3-.1-.2-.1-.5,0-.7.1-.2.4-.4.6-.3h34.7c.2,0,.5.1.6.3.1.2.1.5,0,.7-.1.2-.4.4-.6.3Z"/>
    <path class="st0" d="M9.2,17h29.6v1.7H9.2v-1.7Z"/>
  </g>
</svg>